<svg xmlns="http://www.w3.org/2000/svg" width="541" height="370" viewBox="0 0 541 370" fill="none">
<path opacity="0.16" fill-rule="evenodd" clip-rule="evenodd" d="M461.3 96.8L538.7 96.8V174.2H529.9C490.6 174.2 461.3 141.9 461.3 101.6V96.8Z" fill="#fdb940"/>
<path opacity="0.16" fill-rule="evenodd" clip-rule="evenodd" d="M449.2 93.1L371.8 93.1V170.5H379.6C417.9 170.5 449.2 139.2 449.2 100.9V93.1Z" fill="#fdb940"/>
<path opacity="0.16" fill-rule="evenodd" clip-rule="evenodd" d="M354.4 179.7H279.6V104.9H287.4C322.7 104.9 354.4 133.2 354.4 167.5V179.7Z" fill="#fdb940"/>
<path opacity="0.16" fill-rule="evenodd" clip-rule="evenodd" d="M186.8 174.3H263.2V97.7H255.4C220.1 97.7 186.8 130 186.8 165.3V174.3Z" fill="#fdb940"/>
<path opacity="0.16" fill-rule="evenodd" clip-rule="evenodd" d="M187.7 2.1L262.3 2.1V79.9H254.5C219.2 79.9 187.7 50.6 187.7 11.3V2.1Z" fill="#fdb940"/>
<path opacity="0.16" fill-rule="evenodd" clip-rule="evenodd" d="M358.6 84.9L276.4 84.9V2.7H284.2C321.5 2.7 358.6 34 358.6 70.3V84.9Z" fill="#fdb940"/>
<path opacity="0.16" fill-rule="evenodd" clip-rule="evenodd" d="M445.5 79.1L370.5 79.1V4.1H378.3C413.6 4.1 445.5 31.4 445.5 65.7V79.1Z" fill="#fdb940"/>
<path opacity="0.16" fill-rule="evenodd" clip-rule="evenodd" d="M264.3 291.6H188.7V367.4H196.5C230.8 367.4 264.3 333.9 264.3 299.6V291.6Z" fill="#fdb940"/>
<path opacity="0.16" fill-rule="evenodd" clip-rule="evenodd" d="M170.1 367.8H95.9L95.9 293.6H103.7C137 293.6 170.1 323.9 170.1 358.2V367.8Z" fill="#fdb940"/>
<path opacity="0.16" fill-rule="evenodd" clip-rule="evenodd" d="M2.9 367.1H79.1L79.1 290.9H71.3C37 290.9 2.9 323.2 2.9 358.5L2.9 367.1Z" fill="#fdb940"/>
<path opacity="0.16" fill-rule="evenodd" clip-rule="evenodd" d="M169.4 278.5H93.6L93.6 202.7H101.4C136.7 202.7 169.4 232.0 169.4 267.3V278.5Z" fill="#fdb940"/>
<path opacity="0.16" fill-rule="evenodd" clip-rule="evenodd" d="M363.2 372.9H449.8V286.3H442C404.7 286.3 363.2 317.6 363.2 354.9V372.9Z" fill="#fdb940"/>
<path opacity="0.16" fill-rule="evenodd" clip-rule="evenodd" d="M368.5 195.8H444.5V271.8H436.7C401.4 271.8 368.5 239.5 368.5 204.2V195.8Z" fill="#fdb940"/>
<path opacity="0.16" fill-rule="evenodd" clip-rule="evenodd" d="M533.6 272.5H459.4V198.3H467.2C500.5 198.3 533.6 228.6 533.6 262.9V272.5Z" fill="#fdb940"/>
<path opacity="0.16" fill-rule="evenodd" clip-rule="evenodd" d="M278.2 272.5H354.8V195.9H347C311.7 195.9 278.2 228.2 278.2 263.5V272.5Z" fill="#fdb940"/>
</svg>
